<svg xmlns="http://www.w3.org/2000/svg" viewBox="0 0 160 32" role="img" aria-labelledby="logo-title">
  <title id="logo-title">OC Social</title>
  <rect width="32" height="32" rx="10" fill="#2563eb"/>
  <path fill="#fff" d="M9 8h14a3 3 0 0 1 3 3v8a3 3 0 0 1-3 3h-6.35L12 25.25V22H9a3 3 0 0 1-3-3v-8a3 3 0 0 1 3-3Zm3 6a2 2 0 1 0 0 4 2 2 0 0 0 0-4Zm8 0a2 2 0 1 0 0 4 2 2 0 0 0 0-4Z"/>
  <text x="42" y="22" fill="#1f2937" font-family="Arial, Helvetica, sans-serif" font-size="18" font-weight="700">OC Social</text>
</svg>
